<svg width="877" height="531" viewBox="0 0 877 531" version="1.1" xmlns="http://www.w3.org/2000/svg" xmlns:xlink="http://www.w3.org/1999/xlink" xmlns:figma="http://www.figma.com/figma/ns">
<title>Graphic_SVG Animation</title>
<desc>Created using Figma</desc>
<g id="Canvas" transform="translate(4929 -4707)" figma:type="canvas">
<g id="Graphic_SVG Animation" figma:type="frame">
<g id="Shadow" figma:type="frame">
<g id="Stroke 1" figma:type="vector">
<use xlink:href="#path0_fill" transform="translate(-4927.46 4817.31)" fill="#F8F8F8"/>
</g>
</g>
<g id="Line Drawing" figma:type="frame">
<g id="Stroke 8" figma:type="vector">
<use xlink:href="#path1_fill" transform="translate(-4666.79 4741.28)" fill="#FFFFFF"/>
<use xlink:href="#path2_stroke" transform="translate(-4666.79 4741.28)" fill="#05C5DC"/>
</g>
<g id="Stroke 9" figma:type="vector">
<use xlink:href="#path3_fill" transform="translate(-4796.45 4817.31)" fill="#FFFFFF"/>
<use xlink:href="#path4_stroke" transform="translate(-4796.45 4817.31)" fill="#05C5DC"/>
</g>
<g id="Stroke 10" figma:type="vector">
<use xlink:href="#path5_fill" transform="translate(-4775.93 4968.37)" fill="#FFFFFF"/>
<use xlink:href="#path6_stroke" transform="translate(-4775.93 4968.37)" fill="#05C5DC"/>
</g>
<g id="Stroke 12" figma:type="vector">
<use xlink:href="#path7_fill" transform="translate(-4623.62 4902.46)" fill="#FFFFFF"/>
<use xlink:href="#path8_stroke" transform="translate(-4623.62 4902.46)" fill="#05C5DC"/>
</g>
<g id="Stroke 13" figma:type="vector">
<use xlink:href="#path9_fill" transform="translate(-4363.43 4889.06)" fill="#FFFFFF"/>
<use xlink:href="#path10_stroke" transform="translate(-4363.43 4889.06)" fill="#05C5DC"/>
</g>
<g id="Stroke 3" figma:type="vector">
<use xlink:href="#path11_fill" transform="translate(-4927.46 4758.17)" fill="#FFFFFF"/>
<use xlink:href="#path12_stroke" transform="translate(-4927.46 4758.17)" fill="#05C5DC"/>
</g>
<g id="Stroke 5" figma:type="vector">
<use xlink:href="#path13_fill" transform="translate(-4728.58 4708.5)" fill="#FFFFFF"/>
<use xlink:href="#path14_stroke" transform="translate(-4728.58 4708.5)" fill="#05C5DC"/>
</g>
<g id="Page 1" figma:type="vector">
<use xlink:href="#path15_fill" transform="translate(-4666 4946)" fill="#FFFFFF"/>
<use xlink:href="#path16_stroke" transform="translate(-4666 4946)" fill="#05C5DC"/>
</g>
</g>
<g id="Study" figma:type="text">
<use xlink:href="#path17_fill" transform="translate(-4780.27 4808.42)" fill="#00B8CE"/>
</g>
<g id="Entryway" figma:type="text">
<use xlink:href="#path18_fill" transform="translate(-4667.03 4887.41)" fill="#00B8CE"/>
</g>
<g id="Workshop" figma:type="text">
<use xlink:href="#path19_fill" transform="translate(-4487.89 4987.64)" fill="#00B8CE"/>
</g>
<g id="Conference" figma:type="text">
<use xlink:href="#path20_fill" transform="translate(-4257.44 4956.89)" fill="#00B8CE"/>
</g>
<g id="Kitchen" figma:type="text">
<use xlink:href="#path21_fill" transform="translate(-4617.31 4977.78)" fill="#00B8CE"/>
</g>
<g id="Exit" figma:type="text">
<use xlink:href="#path22_fill" transform="translate(-4587.99 4754.24)" fill="#00B8CE"/>
</g>
<g id="Exit" figma:type="text">
<use xlink:href="#path22_fill" transform="translate(-4707.64 4976.73)" fill="#00B8CE"/>
</g>
</g>
</g>
<defs>
<path id="path0_fill" fill-rule="evenodd" d="M 873.632 275.173L 705.535 376.096L 585.547 304.267L 585.531 304.267L 400.908 420.25L 303.838 362.692L 260.669 289.365L 239.124 294.333L 184.67 328.788L 151.524 309.865L 233.442 259.861L 131.005 205.788L 63.9243 167.942L 52.8757 175.038L 0 144.288L 40.2486 119.846L 55.2432 132.462L 198.876 49.6731L 282.53 0L 310.151 17.3462L 224.54 65.5685L 260.669 87.9292L 355.135 32.7842L 418.27 73.3269L 360.659 104.865L 333.038 89.0962L 294.368 108.808L 463.254 205.788L 480.616 193.962L 560.324 242.846L 542.962 256.25L 564.018 269.985L 710.27 180.558L 873.632 275.173Z"/>
<path id="path1_fill" fill-rule="evenodd" d="M 0 55.1529L 94.4723 0L 157.607 40.5443L 99.9966 72.0827L 72.375 56.3135L 33.7047 76.025L 0 55.1529Z"/>
<path id="path2_stroke" d="M 0 55.1529L -0.252086 54.7211L -0.970087 55.1403L -0.263244 55.578L 0 55.1529ZM 94.4723 0L 94.7424 -0.420718L 94.4847 -0.586232L 94.2202 -0.431802L 94.4723 0ZM 157.607 40.5443L 157.847 40.9828L 158.586 40.5785L 157.878 40.1236L 157.607 40.5443ZM 99.9966 72.0827L 99.7487 72.517L 99.9915 72.6556L 100.237 72.5213L 99.9966 72.0827ZM 72.375 56.3135L 72.6229 55.8793L 72.3884 55.7454L 72.1479 55.868L 72.375 56.3135ZM 33.7047 76.025L 33.4414 76.4501L 33.6809 76.5984L 33.9318 76.4705L 33.7047 76.025ZM 0.252086 55.5847L 94.7243 0.431802L 94.2202 -0.431802L -0.252086 54.7211L 0.252086 55.5847ZM 94.2021 0.420718L 157.337 40.965L 157.878 40.1236L 94.7424 -0.420718L 94.2021 0.420718ZM 157.367 40.1057L 99.7565 71.6441L 100.237 72.5213L 157.847 40.9828L 157.367 40.1057ZM 100.244 71.6485L 72.6229 55.8793L 72.1271 56.7477L 99.7487 72.517L 100.244 71.6485ZM 72.1479 55.868L 33.4776 75.5796L 33.9318 76.4705L 72.602 56.759L 72.1479 55.868ZM 33.9679 75.5999L 0.263244 54.7278L -0.263244 55.578L 33.4414 76.4501L 33.9679 75.5999Z"/>
<path id="path3_fill" fill-rule="evenodd" d="M 0 96.9808L 138.897 170.308L 227.286 128.519L 260.432 147.442L 332.249 96.9808L 163.362 0L 0 96.9808Z"/>
<path id="path4_stroke" d="M 0 96.9808L -0.255239 96.5508L -1.02255 97.0063L -0.233429 97.4229L 0 96.9808ZM 138.897 170.308L 138.664 170.75L 138.885 170.867L 139.111 170.76L 138.897 170.308ZM 227.286 128.519L 227.534 128.085L 227.308 127.956L 227.073 128.067L 227.286 128.519ZM 260.432 147.442L 260.185 147.877L 260.46 148.034L 260.72 147.851L 260.432 147.442ZM 332.249 96.9808L 332.536 97.3899L 333.179 96.9383L 332.498 96.5472L 332.249 96.9808ZM 163.362 0L 163.611 -0.433596L 163.358 -0.578981L 163.107 -0.429945L 163.362 0ZM -0.233429 97.4229L 138.664 170.75L 139.131 169.866L 0.233429 96.5386L -0.233429 97.4229ZM 139.111 170.76L 227.5 128.971L 227.073 128.067L 138.684 169.856L 139.111 170.76ZM 227.039 128.953L 260.185 147.877L 260.68 147.008L 227.534 128.085L 227.039 128.953ZM 260.72 147.851L 332.536 97.3899L 331.961 96.5717L 260.145 147.033L 260.72 147.851ZM 332.498 96.5472L 163.611 -0.433596L 163.113 0.433596L 332 97.4144L 332.498 96.5472ZM 163.107 -0.429945L -0.255239 96.5508L 0.255239 97.4107L 163.617 0.429945L 163.107 -0.429945Z"/>
<path id="path5_fill" fill-rule="evenodd" d="M 81.9194 0L 0 49.9979L 33.1459 68.921L 87.6 34.4605L 109.139 29.4979L 118.378 19.2479L 81.9194 0Z"/>
<path id="path6_stroke" d="M 81.9194 0L 82.1529 -0.442164L 81.9015 -0.574848L 81.6589 -0.426789L 81.9194 0ZM 0 49.9979L -0.260482 49.5711L -0.983307 50.0123L -0.247897 50.4321L 0 49.9979ZM 33.1459 68.921L 32.898 69.3552L 33.1592 69.5043L 33.4133 69.3435L 33.1459 68.921ZM 87.6 34.4605L 87.4877 33.9733L 87.4047 33.9924L 87.3326 34.038L 87.6 34.4605ZM 109.139 29.4979L 109.251 29.9852L 109.404 29.9498L 109.51 29.8327L 109.139 29.4979ZM 118.378 19.2479L 118.75 19.5827L 119.18 19.1056L 118.612 18.8058L 118.378 19.2479ZM 81.6589 -0.426789L -0.260482 49.5711L 0.260482 50.4247L 82.1799 0.426789L 81.6589 -0.426789ZM -0.247897 50.4321L 32.898 69.3552L 33.3938 68.4868L 0.247897 49.5637L -0.247897 50.4321ZM 33.4133 69.3435L 87.8674 34.883L 87.3326 34.038L 32.8786 68.4985L 33.4133 69.3435ZM 87.7123 34.9477L 109.251 29.9852L 109.026 29.0107L 87.4877 33.9733L 87.7123 34.9477ZM 109.51 29.8327L 118.75 19.5827L 118.007 18.9131L 108.767 29.1631L 109.51 29.8327ZM 118.612 18.8058L 82.1529 -0.442164L 81.686 0.442164L 118.145 19.6901L 118.612 18.8058Z"/>
<path id="path7_fill" fill-rule="evenodd" d="M 159.416 11.8269L 176.778 0L 256.486 48.8846L 239.124 62.2885L 297.524 100.366L 97.0703 226.288L 0 168.731"/>
<path id="path8_stroke" d="M 176.778 0L 177.04 -0.426226L 176.764 -0.59528L 176.497 -0.413235L 176.778 0ZM 256.486 48.8846L 256.792 49.2804L 257.366 48.8374L 256.748 48.4584L 256.486 48.8846ZM 239.124 62.2885L 238.819 61.8927L 238.262 62.3228L 238.851 62.7073L 239.124 62.2885ZM 297.524 100.366L 297.79 100.79L 298.452 100.374L 297.797 99.9476L 297.524 100.366ZM 97.0703 226.288L 96.8153 226.719L 97.0778 226.874L 97.3362 226.712L 97.0703 226.288ZM 159.698 12.2402L 177.06 0.413235L 176.497 -0.413235L 159.135 11.4137L 159.698 12.2402ZM 176.517 0.426226L 256.225 49.3108L 256.748 48.4584L 177.04 -0.426226L 176.517 0.426226ZM 256.181 48.4888L 238.819 61.8927L 239.43 62.6842L 256.792 49.2804L 256.181 48.4888ZM 238.851 62.7073L 297.251 100.785L 297.797 99.9476L 239.397 61.8696L 238.851 62.7073ZM 297.258 99.943L 96.8043 225.865L 97.3362 226.712L 297.79 100.79L 297.258 99.943ZM 97.3253 225.858L 0.255015 168.301L -0.255015 169.161L 96.8153 226.719L 97.3253 225.858Z"/>
<path id="path9_fill" fill-rule="evenodd" d="M 0 89.4242L 146.248 0L 309.61 94.6154L 141.513 195.538L 21.5101 123.714L 37.3397 113.77L 0 89.4242Z"/>
<path id="path10_stroke" d="M 0 89.4242L -0.260832 88.9976L -0.936273 89.4106L -0.273088 89.843L 0 89.4242ZM 146.248 0L 146.498 -0.43267L 146.241 -0.581823L 145.987 -0.426575L 146.248 0ZM 309.61 94.6154L 309.867 95.0441L 310.594 94.6076L 309.861 94.1827L 309.61 94.6154ZM 141.513 195.538L 141.256 195.967L 141.513 196.121L 141.77 195.967L 141.513 195.538ZM 21.5101 123.714L 21.2442 123.291L 20.5538 123.725L 21.2534 124.143L 21.5101 123.714ZM 37.3397 113.77L 37.6057 114.194L 38.2672 113.778L 37.6128 113.351L 37.3397 113.77ZM 0.260832 89.8507L 146.509 0.426575L 145.987 -0.426575L -0.260832 88.9976L 0.260832 89.8507ZM 145.997 0.43267L 309.359 95.0481L 309.861 94.1827L 146.498 -0.43267L 145.997 0.43267ZM 309.353 94.1867L 141.255 195.11L 141.77 195.967L 309.867 95.0441L 309.353 94.1867ZM 141.769 195.109L 21.7669 123.285L 21.2534 124.143L 141.256 195.967L 141.769 195.109ZM 21.7761 124.138L 37.6057 114.194L 37.0737 113.347L 21.2442 123.291L 21.7761 124.138ZM 37.6128 113.351L 0.273088 89.0053L -0.273088 89.843L 37.0666 114.189L 37.6128 113.351Z"/>
<path id="path11_fill" fill-rule="evenodd" d="M 131.005 156.115L 294.368 59.1346L 198.876 0L 55.2432 82.7885L 40.2486 70.1731L 0 94.6154L 52.8757 125.365L 63.9243 118.269L 131.005 156.115Z"/>
<path id="path12_stroke" d="M 131.005 156.115L 130.76 156.551L 131.012 156.693L 131.261 156.545L 131.005 156.115ZM 294.368 59.1346L 294.623 59.5646L 295.332 59.1436L 294.631 58.7095L 294.368 59.1346ZM 198.876 0L 199.139 -0.425092L 198.885 -0.582412L 198.626 -0.433192L 198.876 0ZM 55.2432 82.7885L 54.9213 83.1711L 55.1894 83.3966L 55.4929 83.2216L 55.2432 82.7885ZM 40.2486 70.1731L 40.5705 69.7905L 40.2959 69.5594L 39.9891 69.7457L 40.2486 70.1731ZM 0 94.6154L -0.259533 94.188L -0.978589 94.6247L -0.251361 95.0476L 0 94.6154ZM 52.8757 125.365L 52.6243 125.798L 52.8886 125.951L 53.1459 125.786L 52.8757 125.365ZM 63.9243 118.269L 64.17 117.834L 63.9076 117.686L 63.6541 117.849L 63.9243 118.269ZM 131.261 156.545L 294.623 59.5646L 294.112 58.7047L 130.75 155.685L 131.261 156.545ZM 294.631 58.7095L 199.139 -0.425092L 198.612 0.425092L 294.104 59.5597L 294.631 58.7095ZM 198.626 -0.433192L 54.9936 82.3553L 55.4929 83.2216L 199.125 0.433192L 198.626 -0.433192ZM 55.5651 82.4059L 40.5705 69.7905L 39.9268 70.5557L 54.9213 83.1711L 55.5651 82.4059ZM 39.9891 69.7457L -0.259533 94.188L 0.259533 95.0428L 40.5082 70.6004L 39.9891 69.7457ZM -0.251361 95.0476L 52.6243 125.798L 53.127 124.933L 0.251361 94.1832L -0.251361 95.0476ZM 53.1459 125.786L 64.1945 118.69L 63.6541 117.849L 52.6055 124.945L 53.1459 125.786ZM 63.6786 118.705L 130.76 156.551L 131.251 155.68L 64.17 117.834L 63.6786 118.705Z"/>
<path id="path13_fill" fill-rule="evenodd" d="M 0 49.6731L 83.6541 0L 111.276 17.3462L 25.666 65.5669L 0 49.6731Z"/>
<path id="path14_stroke" d="M 0 49.6731L -0.255283 49.2432L -0.964193 49.6641L -0.263241 50.0982L 0 49.6731ZM 83.6541 0L 83.92 -0.423429L 83.6613 -0.585836L 83.3988 -0.42992L 83.6541 0ZM 111.276 17.3462L 111.521 17.7818L 112.253 17.3695L 111.542 16.9227L 111.276 17.3462ZM 25.666 65.5669L 25.4028 65.992L 25.654 66.1475L 25.9114 66.0025L 25.666 65.5669ZM 0.255283 50.103L 83.9093 0.42992L 83.3988 -0.42992L -0.255283 49.2432L 0.255283 50.103ZM 83.3881 0.423429L 111.01 17.7696L 111.542 16.9227L 83.92 -0.423429L 83.3881 0.423429ZM 111.03 16.9105L 25.4206 65.1312L 25.9114 66.0025L 111.521 17.7818L 111.03 16.9105ZM 25.9293 65.1418L 0.263241 49.248L -0.263241 50.0982L 25.4028 65.992L 25.9293 65.1418Z"/>
<path id="path15_fill" fill-rule="evenodd" d="M 0 51.235L 42.4692 123.43L 165.123 46.5773L 128.637 18.6309L 96.0331 0L 9.08879 41.1433L 0 51.235Z"/>
<path id="path16_stroke" d="M 0 51.235L -0.371533 50.9004L -0.616758 51.1727L -0.430963 51.4886L 0 51.235ZM 42.4692 123.43L 42.0382 123.683L 42.299 124.127L 42.7347 123.854L 42.4692 123.43ZM 165.123 46.5773L 165.388 47.001L 165.999 46.6185L 165.427 46.1804L 165.123 46.5773ZM 128.637 18.6309L 128.941 18.234L 128.915 18.2135L 128.885 18.1968L 128.637 18.6309ZM 96.0331 0L 96.2812 -0.434122L 96.0549 -0.563448L 95.8192 -0.451951L 96.0331 0ZM 9.08879 41.1433L 8.87492 40.6913L 8.78432 40.7342L 8.71725 40.8087L 9.08879 41.1433ZM -0.430963 51.4886L 42.0382 123.683L 42.9002 123.176L 0.430963 50.9815L -0.430963 51.4886ZM 42.7347 123.854L 165.388 47.001L 164.857 46.1536L 42.2037 123.006L 42.7347 123.854ZM 165.427 46.1804L 128.941 18.234L 128.333 19.0279L 164.819 46.9743L 165.427 46.1804ZM 128.885 18.1968L 96.2812 -0.434122L 95.785 0.434122L 128.389 19.065L 128.885 18.1968ZM 95.8192 -0.451951L 8.87492 40.6913L 9.30266 41.5952L 96.247 0.451951L 95.8192 -0.451951ZM 8.71725 40.8087L -0.371533 50.9004L 0.371533 51.5697L 9.46032 41.4779L 8.71725 40.8087Z"/>
<path id="path17_fill" d="M 3.50391 7.19727C 2.53906 6.91992 1.83594 6.58008 1.39453 6.17773C 0.957031 5.77148 0.738281 5.27148 0.738281 4.67773C 0.738281 4.00586 1.00586 3.45117 1.54102 3.01367C 2.08008 2.57227 2.7793 2.35156 3.63867 2.35156C 4.22461 2.35156 4.74609 2.46484 5.20312 2.69141C 5.66406 2.91797 6.01953 3.23047 6.26953 3.62891C 6.52344 4.02734 6.65039 4.46289 6.65039 4.93555L 5.51953 4.93555C 5.51953 4.41992 5.35547 4.01562 5.02734 3.72266C 4.69922 3.42578 4.23633 3.27734 3.63867 3.27734C 3.08398 3.27734 2.65039 3.40039 2.33789 3.64648C 2.0293 3.88867 1.875 4.22656 1.875 4.66016C 1.875 5.00781 2.02148 5.30273 2.31445 5.54492C 2.61133 5.7832 3.11328 6.00195 3.82031 6.20117C 4.53125 6.40039 5.08594 6.62109 5.48438 6.86328C 5.88672 7.10156 6.18359 7.38086 6.375 7.70117C 6.57031 8.02148 6.66797 8.39844 6.66797 8.83203C 6.66797 9.52344 6.39844 10.0781 5.85938 10.4961C 5.32031 10.9102 4.59961 11.1172 3.69727 11.1172C 3.11133 11.1172 2.56445 11.0059 2.05664 10.7832C 1.54883 10.5566 1.15625 10.248 0.878906 9.85742C 0.605469 9.4668 0.46875 9.02344 0.46875 8.52734L 1.59961 8.52734C 1.59961 9.04297 1.78906 9.45117 2.16797 9.75195C 2.55078 10.0488 3.06055 10.1973 3.69727 10.1973C 4.29102 10.1973 4.74609 10.0762 5.0625 9.83398C 5.37891 9.5918 5.53711 9.26172 5.53711 8.84375C 5.53711 8.42578 5.39062 8.10352 5.09766 7.87695C 4.80469 7.64648 4.27344 7.41992 3.50391 7.19727ZM 9.30802 3.125L 9.30802 4.66016L 10.4916 4.66016L 10.4916 5.49805L 9.30802 5.49805L 9.30802 9.42969C 9.30802 9.68359 9.36075 9.875 9.46622 10.0039C 9.57169 10.1289 9.75138 10.1914 10.0053 10.1914C 10.1303 10.1914 10.3022 10.168 10.5209 10.1211L 10.5209 11C 10.2358 11.0781 9.95841 11.1172 9.68888 11.1172C 9.2045 11.1172 8.83927 10.9707 8.59317 10.6777C 8.34708 10.3848 8.22403 9.96875 8.22403 9.42969L 8.22403 5.49805L 7.06973 5.49805L 7.06973 4.66016L 8.22403 4.66016L 8.22403 3.125L 9.30802 3.125ZM 15.6772 10.373C 15.2553 10.8691 14.6361 11.1172 13.8197 11.1172C 13.144 11.1172 12.6283 10.9219 12.2729 10.5312C 11.9213 10.1367 11.7436 9.55469 11.7397 8.78516L 11.7397 4.66016L 12.8236 4.66016L 12.8236 8.75586C 12.8236 9.7168 13.2143 10.1973 13.9955 10.1973C 14.8236 10.1973 15.3744 9.88867 15.6479 9.27148L 15.6479 4.66016L 16.7318 4.66016L 16.7318 11L 15.7006 11L 15.6772 10.373ZM 18.1205 7.77734C 18.1205 6.80469 18.351 6.02344 18.8119 5.43359C 19.2729 4.83984 19.8764 4.54297 20.6225 4.54297C 21.3647 4.54297 21.9525 4.79688 22.3861 5.30469L 22.3861 2L 23.4701 2L 23.4701 11L 22.474 11L 22.4213 10.3203C 21.9877 10.8516 21.3842 11.1172 20.6108 11.1172C 19.8764 11.1172 19.2768 10.8164 18.8119 10.2148C 18.351 9.61328 18.1205 8.82813 18.1205 7.85938L 18.1205 7.77734ZM 19.2045 7.90039C 19.2045 8.61914 19.3529 9.18164 19.6498 9.58789C 19.9467 9.99414 20.3568 10.1973 20.8803 10.1973C 21.5678 10.1973 22.0697 9.88867 22.3861 9.27148L 22.3861 6.35938C 22.0619 5.76172 21.5639 5.46289 20.892 5.46289C 20.3608 5.46289 19.9467 5.66797 19.6498 6.07812C 19.3529 6.48828 19.2045 7.0957 19.2045 7.90039ZM 27.2318 9.41211L 28.7084 4.66016L 29.8686 4.66016L 27.3197 11.9785C 26.9252 13.0332 26.2983 13.5605 25.4389 13.5605L 25.2338 13.543L 24.8295 13.4668L 24.8295 12.5879L 25.1225 12.6113C 25.4897 12.6113 25.7748 12.5371 25.9779 12.3887C 26.185 12.2402 26.3549 11.9687 26.4877 11.5742L 26.7279 10.9297L 24.4662 4.66016L 25.6498 4.66016L 27.2318 9.41211Z"/>
<path id="path18_fill" d="M 5.8125 7.05664L 2.11523 7.05664L 2.11523 10.0801L 6.41016 10.0801L 6.41016 11L 0.990234 11L 0.990234 2.46875L 6.35156 2.46875L 6.35156 3.39453L 2.11523 3.39453L 2.11523 6.13672L 5.8125 6.13672L 5.8125 7.05664ZM 8.66602 4.66016L 8.70117 5.45703C 9.18555 4.84766 9.81836 4.54297 10.5996 4.54297C 11.9395 4.54297 12.6152 5.29883 12.627 6.81055L 12.627 11L 11.543 11L 11.543 6.80469C 11.5391 6.34766 11.4336 6.00977 11.2266 5.79102C 11.0234 5.57227 10.7051 5.46289 10.2715 5.46289C 9.91992 5.46289 9.61133 5.55664 9.3457 5.74414C 9.08008 5.93164 8.87305 6.17773 8.72461 6.48242L 8.72461 11L 7.64062 11L 7.64062 4.66016L 8.66602 4.66016ZM 15.6964 3.125L 15.6964 4.66016L 16.88 4.66016L 16.88 5.49805L 15.6964 5.49805L 15.6964 9.42969C 15.6964 9.68359 15.7492 9.875 15.8546 10.0039C 15.9601 10.1289 16.1398 10.1914 16.3937 10.1914C 16.5187 10.1914 16.6906 10.168 16.9093 10.1211L 16.9093 11C 16.6242 11.0781 16.3468 11.1172 16.0773 11.1172C 15.5929 11.1172 15.2277 10.9707 14.9816 10.6777C 14.7355 10.3848 14.6124 9.96875 14.6124 9.42969L 14.6124 5.49805L 13.4581 5.49805L 13.4581 4.66016L 14.6124 4.66016L 14.6124 3.125L 15.6964 3.125ZM 21.216 5.63281C 21.0519 5.60547 20.8742 5.5918 20.6828 5.5918C 19.9718 5.5918 19.4894 5.89453 19.2355 6.5L 19.2355 11L 18.1515 11L 18.1515 4.66016L 19.2062 4.66016L 19.2238 5.39258C 19.5792 4.82617 20.0831 4.54297 20.7355 4.54297C 20.9464 4.54297 21.1066 4.57031 21.216 4.625L 21.216 5.63281ZM 24.3976 9.41211L 25.8742 4.66016L 27.0343 4.66016L 24.4855 11.9785C 24.091 13.0332 23.464 13.5605 22.6046 13.5605L 22.3995 13.543L 21.9953 13.4668L 21.9953 12.5879L 22.2882 12.6113C 22.6554 12.6113 22.9406 12.5371 23.1437 12.3887C 23.3507 12.2402 23.5206 11.9687 23.6535 11.5742L 23.8937 10.9297L 21.632 4.66016L 22.8156 4.66016L 24.3976 9.41211ZM 33.6203 9.50586L 34.839 4.66016L 35.923 4.66016L 34.0773 11L 33.1984 11L 31.6574 6.19531L 30.1574 11L 29.2785 11L 27.4386 4.66016L 28.5167 4.66016L 29.7648 9.40625L 31.2413 4.66016L 32.1144 4.66016L 33.6203 9.50586ZM 40.8845 11C 40.822 10.875 40.7712 10.6523 40.7321 10.332C 40.2282 10.8555 39.6267 11.1172 38.9274 11.1172C 38.3024 11.1172 37.7888 10.9414 37.3864 10.5898C 36.988 10.2344 36.7888 9.78516 36.7888 9.24219C 36.7888 8.58203 37.0388 8.07031 37.5388 7.70703C 38.0427 7.33984 38.7497 7.15625 39.6599 7.15625L 40.7145 7.15625L 40.7145 6.6582C 40.7145 6.2793 40.6013 5.97852 40.3747 5.75586C 40.1481 5.5293 39.8142 5.41602 39.3727 5.41602C 38.986 5.41602 38.6618 5.51367 38.4001 5.70898C 38.1384 5.9043 38.0075 6.14063 38.0075 6.41797L 36.9177 6.41797C 36.9177 6.10156 37.029 5.79688 37.2517 5.50391C 37.4782 5.20703 37.7829 4.97266 38.1657 4.80078C 38.5524 4.62891 38.9763 4.54297 39.4372 4.54297C 40.1677 4.54297 40.7399 4.72656 41.154 5.09375C 41.5681 5.45703 41.7829 5.95898 41.7985 6.59961L 41.7985 9.51758C 41.7985 10.0996 41.8727 10.5625 42.0212 10.9062L 42.0212 11L 40.8845 11ZM 39.0856 10.1738C 39.4255 10.1738 39.7477 10.0859 40.0524 9.91016C 40.3571 9.73438 40.5778 9.50586 40.7145 9.22461L 40.7145 7.92383L 39.8649 7.92383C 38.5368 7.92383 37.8727 8.3125 37.8727 9.08984C 37.8727 9.42969 37.986 9.69531 38.2126 9.88672C 38.4392 10.0781 38.7302 10.1738 39.0856 10.1738ZM 45.512 9.41211L 46.9885 4.66016L 48.1487 4.66016L 45.5999 11.9785C 45.2053 13.0332 44.5784 13.5605 43.719 13.5605L 43.5139 13.543L 43.1096 13.4668L 43.1096 12.5879L 43.4026 12.6113C 43.7698 12.6113 44.0549 12.5371 44.2581 12.3887C 44.4651 12.2402 44.635 11.9687 44.7678 11.5742L 45.0081 10.9297L 42.7463 4.66016L 43.9299 4.66016L 45.512 9.41211Z"/>
<path id="path19_fill" d="M 2.83008 8.31055L 2.99414 9.43555L 3.23438 8.42188L 4.92188 2.46875L 5.87109 2.46875L 7.51758 8.42188L 7.75195 9.45312L 7.93359 8.30469L 9.25781 2.46875L 10.3887 2.46875L 8.32031 11L 7.29492 11L 5.53711 4.7832L 5.40234 4.13281L 5.26758 4.7832L 3.44531 11L 2.41992 11L 0.357422 2.46875L 1.48242 2.46875L 2.83008 8.31055ZM 10.9455 7.77148C 10.9455 7.15039 11.0666 6.5918 11.3088 6.0957C 11.5549 5.59961 11.8948 5.2168 12.3284 4.94727C 12.7659 4.67773 13.2639 4.54297 13.8225 4.54297C 14.6858 4.54297 15.383 4.8418 15.9143 5.43945C 16.4495 6.03711 16.717 6.83203 16.717 7.82422L 16.717 7.90039C 16.717 8.51758 16.5979 9.07227 16.3596 9.56445C 16.1252 10.0527 15.7873 10.4336 15.3459 10.707C 14.9084 10.9805 14.4045 11.1172 13.8342 11.1172C 12.9748 11.1172 12.2776 10.8184 11.7424 10.2207C 11.2112 9.62305 10.9455 8.83203 10.9455 7.84766L 10.9455 7.77148ZM 12.0354 7.90039C 12.0354 8.60352 12.1975 9.16797 12.5217 9.59375C 12.8498 10.0195 13.2873 10.2324 13.8342 10.2324C 14.385 10.2324 14.8225 10.0176 15.1467 9.58789C 15.4709 9.1543 15.633 8.54883 15.633 7.77148C 15.633 7.07617 15.467 6.51367 15.135 6.08398C 14.8069 5.65039 14.3694 5.43359 13.8225 5.43359C 13.2873 5.43359 12.8557 5.64648 12.5276 6.07227C 12.1995 6.49805 12.0354 7.10742 12.0354 7.90039ZM 21.1409 5.63281C 20.9768 5.60547 20.7991 5.5918 20.6077 5.5918C 19.8967 5.5918 19.4143 5.89453 19.1604 6.5L 19.1604 11L 18.0764 11L 18.0764 4.66016L 19.1311 4.66016L 19.1487 5.39258C 19.5041 4.82617 20.008 4.54297 20.6604 4.54297C 20.8713 4.54297 21.0315 4.57031 21.1409 4.625L 21.1409 5.63281ZM 23.9123 8.06445L 23.2327 8.77344L 23.2327 11L 22.1487 11L 22.1487 2L 23.2327 2L 23.2327 7.44336L 23.8127 6.74609L 25.7873 4.66016L 27.1057 4.66016L 24.6389 7.30859L 27.3928 11L 26.1213 11L 23.9123 8.06445ZM 31.9163 9.31836C 31.9163 9.02539 31.8049 8.79883 31.5823 8.63867C 31.3635 8.47461 30.9788 8.33398 30.428 8.2168C 29.8811 8.09961 29.4455 7.95898 29.1213 7.79492C 28.801 7.63086 28.5627 7.43555 28.4065 7.20898C 28.2541 6.98242 28.178 6.71289 28.178 6.40039C 28.178 5.88086 28.3967 5.44141 28.8342 5.08203C 29.2756 4.72266 29.8381 4.54297 30.5217 4.54297C 31.2405 4.54297 31.8225 4.72852 32.2678 5.09961C 32.717 5.4707 32.9416 5.94531 32.9416 6.52344L 31.8518 6.52344C 31.8518 6.22656 31.7248 5.9707 31.4709 5.75586C 31.2209 5.54102 30.9045 5.43359 30.5217 5.43359C 30.1272 5.43359 29.8186 5.51953 29.5959 5.69141C 29.3733 5.86328 29.262 6.08789 29.262 6.36523C 29.262 6.62695 29.3655 6.82422 29.5725 6.95703C 29.7795 7.08984 30.1526 7.2168 30.6916 7.33789C 31.2346 7.45898 31.6741 7.60352 32.01 7.77148C 32.3459 7.93945 32.594 8.14258 32.7541 8.38086C 32.9182 8.61523 33.0002 8.90234 33.0002 9.24219C 33.0002 9.80859 32.7737 10.2637 32.3205 10.6074C 31.8674 10.9473 31.2795 11.1172 30.5569 11.1172C 30.0491 11.1172 29.5998 11.0273 29.2092 10.8477C 28.8186 10.668 28.512 10.418 28.2893 10.0977C 28.0705 9.77344 27.9612 9.42383 27.9612 9.04883L 29.0452 9.04883C 29.0647 9.41211 29.2092 9.70117 29.4788 9.91602C 29.7522 10.127 30.1116 10.2324 30.5569 10.2324C 30.967 10.2324 31.2952 10.1504 31.5413 9.98633C 31.7913 9.81836 31.9163 9.5957 31.9163 9.31836ZM 35.4963 5.42773C 35.9768 4.83789 36.6018 4.54297 37.3713 4.54297C 38.7112 4.54297 39.387 5.29883 39.3987 6.81055L 39.3987 11L 38.3147 11L 38.3147 6.80469C 38.3108 6.34766 38.2053 6.00977 37.9983 5.79102C 37.7952 5.57227 37.4768 5.46289 37.0432 5.46289C 36.6916 5.46289 36.383 5.55664 36.1174 5.74414C 35.8518 5.93164 35.6448 6.17773 35.4963 6.48242L 35.4963 11L 34.4123 11L 34.4123 2L 35.4963 2L 35.4963 5.42773ZM 40.7346 7.77148C 40.7346 7.15039 40.8557 6.5918 41.0979 6.0957C 41.344 5.59961 41.6838 5.2168 42.1174 4.94727C 42.5549 4.67773 43.053 4.54297 43.6116 4.54297C 44.4748 4.54297 45.1721 4.8418 45.7034 5.43945C 46.2385 6.03711 46.5061 6.83203 46.5061 7.82422L 46.5061 7.90039C 46.5061 8.51758 46.387 9.07227 46.1487 9.56445C 45.9143 10.0527 45.5764 10.4336 45.135 10.707C 44.6975 10.9805 44.1936 11.1172 43.6233 11.1172C 42.7639 11.1172 42.0666 10.8184 41.5315 10.2207C 41.0002 9.62305 40.7346 8.83203 40.7346 7.84766L 40.7346 7.77148ZM 41.8245 7.90039C 41.8245 8.60352 41.9866 9.16797 42.3108 9.59375C 42.6389 10.0195 43.0764 10.2324 43.6233 10.2324C 44.1741 10.2324 44.6116 10.0176 44.9358 9.58789C 45.26 9.1543 45.4221 8.54883 45.4221 7.77148C 45.4221 7.07617 45.2561 6.51367 44.9241 6.08398C 44.5959 5.65039 44.1584 5.43359 43.6116 5.43359C 43.0764 5.43359 42.6448 5.64648 42.3166 6.07227C 41.9885 6.49805 41.8245 7.10742 41.8245 7.90039ZM 53.2209 7.90039C 53.2209 8.86523 53.0002 9.64258 52.5588 10.2324C 52.1174 10.8223 51.5198 11.1172 50.7659 11.1172C 49.9963 11.1172 49.3909 10.873 48.9495 10.3848L 48.9495 13.4375L 47.8655 13.4375L 47.8655 4.66016L 48.8557 4.66016L 48.9084 5.36328C 49.3498 4.81641 49.9631 4.54297 50.7483 4.54297C 51.51 4.54297 52.1116 4.83008 52.553 5.4043C 52.9983 5.97852 53.2209 6.77734 53.2209 7.80078L 53.2209 7.90039ZM 52.137 7.77734C 52.137 7.0625 51.9846 6.49805 51.6799 6.08398C 51.3752 5.66992 50.9573 5.46289 50.426 5.46289C 49.7698 5.46289 49.2776 5.75391 48.9495 6.33594L 48.9495 9.36523C 49.2737 9.94336 49.7698 10.2324 50.4377 10.2324C 50.9573 10.2324 51.3694 10.0273 51.6741 9.61719C 51.9827 9.20313 52.137 8.58984 52.137 7.77734Z"/>
<path id="path20_fill" d="M 7.26562 8.29297C 7.16016 9.19531 6.82617 9.89258 6.26367 10.3848C 5.70508 10.873 4.96094 11.1172 4.03125 11.1172C 3.02344 11.1172 2.21484 10.7559 1.60547 10.0332C 1 9.31055 0.697266 8.34375 0.697266 7.13281L 0.697266 6.3125C 0.697266 5.51953 0.837891 4.82227 1.11914 4.2207C 1.4043 3.61914 1.80664 3.1582 2.32617 2.83789C 2.8457 2.51367 3.44727 2.35156 4.13086 2.35156C 5.03711 2.35156 5.76367 2.60547 6.31055 3.11328C 6.85742 3.61719 7.17578 4.31641 7.26562 5.21094L 6.13477 5.21094C 6.03711 4.53125 5.82422 4.03906 5.49609 3.73438C 5.17188 3.42969 4.7168 3.27734 4.13086 3.27734C 3.41211 3.27734 2.84766 3.54297 2.4375 4.07422C 2.03125 4.60547 1.82812 5.36133 1.82812 6.3418L 1.82812 7.16797C 1.82812 8.09375 2.02148 8.83008 2.4082 9.37695C 2.79492 9.92383 3.33594 10.1973 4.03125 10.1973C 4.65625 10.1973 5.13477 10.0566 5.4668 9.77539C 5.80273 9.49023 6.02539 8.99609 6.13477 8.29297L 7.26562 8.29297ZM 8.22961 7.77148C 8.22961 7.15039 8.3507 6.5918 8.59289 6.0957C 8.83898 5.59961 9.17883 5.2168 9.61242 4.94727C 10.0499 4.67773 10.548 4.54297 11.1066 4.54297C 11.9698 4.54297 12.6671 4.8418 13.1984 5.43945C 13.7335 6.03711 14.0011 6.83203 14.0011 7.82422L 14.0011 7.90039C 14.0011 8.51758 13.882 9.07227 13.6437 9.56445C 13.4093 10.0527 13.0714 10.4336 12.63 10.707C 12.1925 10.9805 11.6886 11.1172 11.1183 11.1172C 10.2589 11.1172 9.56164 10.8184 9.02648 10.2207C 8.49523 9.62305 8.22961 8.83203 8.22961 7.84766L 8.22961 7.77148ZM 9.31945 7.90039C 9.31945 8.60352 9.48156 9.16797 9.80578 9.59375C 10.1339 10.0195 10.5714 10.2324 11.1183 10.2324C 11.6691 10.2324 12.1066 10.0176 12.4308 9.58789C 12.755 9.1543 12.9171 8.54883 12.9171 7.77148C 12.9171 7.07617 12.7511 6.51367 12.4191 6.08398C 12.0909 5.65039 11.6534 5.43359 11.1066 5.43359C 10.5714 5.43359 10.1398 5.64648 9.81164 6.07227C 9.48352 6.49805 9.31945 7.10742 9.31945 7.90039ZM 16.3859 4.66016L 16.421 5.45703C 16.9054 4.84766 17.5382 4.54297 18.3195 4.54297C 19.6593 4.54297 20.3351 5.29883 20.3468 6.81055L 20.3468 11L 19.2628 11L 19.2628 6.80469C 19.2589 6.34766 19.1534 6.00977 18.9464 5.79102C 18.7433 5.57227 18.4249 5.46289 17.9913 5.46289C 17.6398 5.46289 17.3312 5.55664 17.0655 5.74414C 16.7999 5.93164 16.5929 6.17773 16.4445 6.48242L 16.4445 11L 15.3605 11L 15.3605 4.66016L 16.3859 4.66016ZM 22.5148 11L 22.5148 5.49805L 21.5128 5.49805L 21.5128 4.66016L 22.5148 4.66016L 22.5148 4.00977C 22.5148 3.33008 22.6964 2.80469 23.0597 2.43359C 23.423 2.0625 23.9366 1.87695 24.6007 1.87695C 24.8507 1.87695 25.0988 1.91016 25.3448 1.97656L 25.2863 2.85547C 25.1027 2.82031 24.9073 2.80273 24.7003 2.80273C 24.3488 2.80273 24.0773 2.90625 23.8859 3.11328C 23.6945 3.31641 23.5988 3.60937 23.5988 3.99219L 23.5988 4.66016L 24.9523 4.66016L 24.9523 5.49805L 23.5988 5.49805L 23.5988 11L 22.5148 11ZM 28.6775 11.1172C 27.8181 11.1172 27.1189 10.8359 26.5798 10.2734C 26.0408 9.70703 25.7712 8.95117 25.7712 8.00586L 25.7712 7.80664C 25.7712 7.17773 25.8904 6.61719 26.1287 6.125C 26.3709 5.62891 26.7068 5.24219 27.1365 4.96484C 27.5701 4.68359 28.0388 4.54297 28.5427 4.54297C 29.367 4.54297 30.0076 4.81445 30.4646 5.35742C 30.9216 5.90039 31.1502 6.67773 31.1502 7.68945L 31.1502 8.14062L 26.8552 8.14062C 26.8709 8.76562 27.0525 9.27148 27.4002 9.6582C 27.7517 10.041 28.197 10.2324 28.7361 10.2324C 29.1189 10.2324 29.4431 10.1543 29.7087 9.99805C 29.9744 9.8418 30.2068 9.63477 30.406 9.37695L 31.0681 9.89258C 30.5369 10.709 29.74 11.1172 28.6775 11.1172ZM 28.5427 5.43359C 28.1052 5.43359 27.738 5.59375 27.4412 5.91406C 27.1443 6.23047 26.9607 6.67578 26.8904 7.25L 30.0662 7.25L 30.0662 7.16797C 30.0349 6.61719 29.8865 6.19141 29.6209 5.89062C 29.3552 5.58594 28.9959 5.43359 28.5427 5.43359ZM 35.4744 5.63281C 35.3103 5.60547 35.1326 5.5918 34.9412 5.5918C 34.2302 5.5918 33.7478 5.89453 33.4939 6.5L 33.4939 11L 32.4099 11L 32.4099 4.66016L 33.4646 4.66016L 33.4822 5.39258C 33.8377 4.82617 34.3416 4.54297 34.9939 4.54297C 35.2048 4.54297 35.365 4.57031 35.4744 4.625L 35.4744 5.63281ZM 38.9872 11.1172C 38.1278 11.1172 37.4286 10.8359 36.8895 10.2734C 36.3505 9.70703 36.0809 8.95117 36.0809 8.00586L 36.0809 7.80664C 36.0809 7.17773 36.2001 6.61719 36.4384 6.125C 36.6805 5.62891 37.0165 5.24219 37.4462 4.96484C 37.8798 4.68359 38.3485 4.54297 38.8524 4.54297C 39.6766 4.54297 40.3173 4.81445 40.7743 5.35742C 41.2313 5.90039 41.4598 6.67773 41.4598 7.68945L 41.4598 8.14062L 37.1649 8.14062C 37.1805 8.76562 37.3622 9.27148 37.7098 9.6582C 38.0614 10.041 38.5067 10.2324 39.0458 10.2324C 39.4286 10.2324 39.7528 10.1543 40.0184 9.99805C 40.2841 9.8418 40.5165 9.63477 40.7157 9.37695L 41.3778 9.89258C 40.8466 10.709 40.0497 11.1172 38.9872 11.1172ZM 38.8524 5.43359C 38.4149 5.43359 38.0477 5.59375 37.7509 5.91406C 37.454 6.23047 37.2704 6.67578 37.2001 7.25L 40.3759 7.25L 40.3759 7.16797C 40.3446 6.61719 40.1962 6.19141 39.9305 5.89062C 39.6649 5.58594 39.3055 5.43359 38.8524 5.43359ZM 43.745 4.66016L 43.7802 5.45703C 44.2645 4.84766 44.8973 4.54297 45.6786 4.54297C 47.0184 4.54297 47.6942 5.29883 47.7059 6.81055L 47.7059 11L 46.6219 11L 46.6219 6.80469C 46.618 6.34766 46.5126 6.00977 46.3055 5.79102C 46.1024 5.57227 45.7841 5.46289 45.3505 5.46289C 44.9989 5.46289 44.6903 5.55664 44.4247 5.74414C 44.1591 5.93164 43.952 6.17773 43.8036 6.48242L 43.8036 11L 42.7196 11L 42.7196 4.66016L 43.745 4.66016ZM 51.8837 10.2324C 52.2704 10.2324 52.6083 10.1152 52.8973 9.88086C 53.1864 9.64648 53.3466 9.35352 53.3778 9.00195L 54.4032 9.00195C 54.3837 9.36523 54.2587 9.71094 54.0282 10.0391C 53.7977 10.3672 53.4891 10.6289 53.1024 10.8242C 52.7196 11.0195 52.3134 11.1172 51.8837 11.1172C 51.0204 11.1172 50.3329 10.8301 49.8212 10.2559C 49.3134 9.67773 49.0594 8.88867 49.0594 7.88867L 49.0594 7.70703C 49.0594 7.08984 49.1727 6.54102 49.3993 6.06055C 49.6259 5.58008 49.9501 5.20703 50.3719 4.94141C 50.7977 4.67578 51.2997 4.54297 51.8778 4.54297C 52.5887 4.54297 53.1786 4.75586 53.6473 5.18164C 54.12 5.60742 54.3719 6.16016 54.4032 6.83984L 53.3778 6.83984C 53.3466 6.42969 53.1903 6.09375 52.9091 5.83203C 52.6317 5.56641 52.288 5.43359 51.8778 5.43359C 51.327 5.43359 50.8993 5.63281 50.5946 6.03125C 50.2938 6.42578 50.1434 6.99805 50.1434 7.74805L 50.1434 7.95312C 50.1434 8.68359 50.2938 9.24609 50.5946 9.64062C 50.8954 10.0352 51.3251 10.2324 51.8837 10.2324ZM 58.1808 11.1172C 57.3214 11.1172 56.6222 10.8359 56.0832 10.2734C 55.5441 9.70703 55.2746 8.95117 55.2746 8.00586L 55.2746 7.80664C 55.2746 7.17773 55.3937 6.61719 55.632 6.125C 55.8742 5.62891 56.2101 5.24219 56.6398 4.96484C 57.0734 4.68359 57.5421 4.54297 58.046 4.54297C 58.8703 4.54297 59.5109 4.81445 59.9679 5.35742C 60.4249 5.90039 60.6535 6.67773 60.6535 7.68945L 60.6535 8.14062L 56.3585 8.14062C 56.3742 8.76562 56.5558 9.27148 56.9035 9.6582C 57.255 10.041 57.7003 10.2324 58.2394 10.2324C 58.6222 10.2324 58.9464 10.1543 59.2121 9.99805C 59.4777 9.8418 59.7101 9.63477 59.9093 9.37695L 60.5714 9.89258C 60.0402 10.709 59.2433 11.1172 58.1808 11.1172ZM 58.046 5.43359C 57.6085 5.43359 57.2414 5.59375 56.9445 5.91406C 56.6476 6.23047 56.464 6.67578 56.3937 7.25L 59.5695 7.25L 59.5695 7.16797C 59.5382 6.61719 59.3898 6.19141 59.1242 5.89062C 58.8585 5.58594 58.4992 5.43359 58.046 5.43359Z"/>
<path id="path21_fill" d="M 3.1582 7.0332L 2.11523 8.11719L 2.11523 11L 0.990234 11L 0.990234 2.46875L 2.11523 2.46875L 2.11523 6.6875L 5.90625 2.46875L 7.26562 2.46875L 3.9082 6.23633L 7.5293 11L 6.18164 11L 3.1582 7.0332ZM 9.52148 11L 8.4375 11L 8.4375 4.66016L 9.52148 4.66016L 9.52148 11ZM 8.34961 2.97852C 8.34961 2.80273 8.40234 2.6543 8.50781 2.5332C 8.61719 2.41211 8.77734 2.35156 8.98828 2.35156C 9.19922 2.35156 9.35938 2.41211 9.46875 2.5332C 9.57812 2.6543 9.63281 2.80273 9.63281 2.97852C 9.63281 3.1543 9.57812 3.30078 9.46875 3.41797C 9.35938 3.53516 9.19922 3.59375 8.98828 3.59375C 8.77734 3.59375 8.61719 3.53516 8.50781 3.41797C 8.40234 3.30078 8.34961 3.1543 8.34961 2.97852ZM 12.7324 3.125L 12.7324 4.66016L 13.916 4.66016L 13.916 5.49805L 12.7324 5.49805L 12.7324 9.42969C 12.7324 9.68359 12.7852 9.875 12.8906 10.0039C 12.9961 10.1289 13.1758 10.1914 13.4297 10.1914C 13.5547 10.1914 13.7266 10.168 13.9453 10.1211L 13.9453 11C 13.6602 11.0781 13.3828 11.1172 13.1133 11.1172C 12.6289 11.1172 12.2637 10.9707 12.0176 10.6777C 11.7715 10.3848 11.6484 9.96875 11.6484 9.42969L 11.6484 5.49805L 10.4941 5.49805L 10.4941 4.66016L 11.6484 4.66016L 11.6484 3.125L 12.7324 3.125ZM 17.7305 10.2324C 18.1172 10.2324 18.4551 10.1152 18.7441 9.88086C 19.0332 9.64648 19.1934 9.35352 19.2246 9.00195L 20.25 9.00195C 20.2305 9.36523 20.1055 9.71094 19.875 10.0391C 19.6445 10.3672 19.3359 10.6289 18.9492 10.8242C 18.5664 11.0195 18.1602 11.1172 17.7305 11.1172C 16.8672 11.1172 16.1797 10.8301 15.668 10.2559C 15.1602 9.67773 14.9062 8.88867 14.9062 7.88867L 14.9062 7.70703C 14.9062 7.08984 15.0195 6.54102 15.2461 6.06055C 15.4727 5.58008 15.7969 5.20703 16.2188 4.94141C 16.6445 4.67578 17.1465 4.54297 17.7246 4.54297C 18.4355 4.54297 19.0254 4.75586 19.4941 5.18164C 19.9668 5.60742 20.2188 6.16016 20.25 6.83984L 19.2246 6.83984C 19.1934 6.42969 19.0371 6.09375 18.7559 5.83203C 18.4785 5.56641 18.1348 5.43359 17.7246 5.43359C 17.1738 5.43359 16.7461 5.63281 16.4414 6.03125C 16.1406 6.42578 15.9902 6.99805 15.9902 7.74805L 15.9902 7.95312C 15.9902 8.68359 16.1406 9.24609 16.4414 9.64062C 16.7422 10.0352 17.1719 10.2324 17.7305 10.2324ZM 22.5527 5.42773C 23.0332 4.83789 23.6582 4.54297 24.4277 4.54297C 25.7676 4.54297 26.4434 5.29883 26.4551 6.81055L 26.4551 11L 25.3711 11L 25.3711 6.80469C 25.3672 6.34766 25.2617 6.00977 25.0547 5.79102C 24.8516 5.57227 24.5332 5.46289 24.0996 5.46289C 23.748 5.46289 23.4395 5.55664 23.1738 5.74414C 22.9082 5.93164 22.7012 6.17773 22.5527 6.48242L 22.5527 11L 21.4688 11L 21.4688 2L 22.5527 2L 22.5527 5.42773ZM 30.709 11.1172C 29.8496 11.1172 29.1504 10.8359 28.6113 10.2734C 28.0723 9.70703 27.8027 8.95117 27.8027 8.00586L 27.8027 7.80664C 27.8027 7.17773 27.9219 6.61719 28.1602 6.125C 28.4023 5.62891 28.7383 5.24219 29.168 4.96484C 29.6016 4.68359 30.0703 4.54297 30.5742 4.54297C 31.3984 4.54297 32.0391 4.81445 32.4961 5.35742C 32.9531 5.90039 33.1816 6.67773 33.1816 7.68945L 33.1816 8.14062L 28.8867 8.14062C 28.9023 8.76562 29.084 9.27148 29.4316 9.6582C 29.7832 10.041 30.2285 10.2324 30.7676 10.2324C 31.1504 10.2324 31.4746 10.1543 31.7402 9.99805C 32.0059 9.8418 32.2383 9.63477 32.4375 9.37695L 33.0996 9.89258C 32.5684 10.709 31.7715 11.1172 30.709 11.1172ZM 30.5742 5.43359C 30.1367 5.43359 29.7695 5.59375 29.4727 5.91406C 29.1758 6.23047 28.9922 6.67578 28.9219 7.25L 32.0977 7.25L 32.0977 7.16797C 32.0664 6.61719 31.918 6.19141 31.6523 5.89062C 31.3867 5.58594 31.0273 5.43359 30.5742 5.43359ZM 35.4668 4.66016L 35.502 5.45703C 35.9863 4.84766 36.6191 4.54297 37.4004 4.54297C 38.7402 4.54297 39.416 5.29883 39.4277 6.81055L 39.4277 11L 38.3438 11L 38.3438 6.80469C 38.3398 6.34766 38.2344 6.00977 38.0273 5.79102C 37.8242 5.57227 37.5059 5.46289 37.0723 5.46289C 36.7207 5.46289 36.4121 5.55664 36.1465 5.74414C 35.8809 5.93164 35.6738 6.17773 35.5254 6.48242L 35.5254 11L 34.4414 11L 34.4414 4.66016L 35.4668 4.66016Z"/>
<path id="path22_fill" d="M 5.8125 7.05664L 2.11523 7.05664L 2.11523 10.0801L 6.41016 10.0801L 6.41016 11L 0.990234 11L 0.990234 2.46875L 6.35156 2.46875L 6.35156 3.39453L 2.11523 3.39453L 2.11523 6.13672L 5.8125 6.13672L 5.8125 7.05664ZM 9.76758 6.97461L 11.1738 4.66016L 12.4395 4.66016L 10.3652 7.79492L 12.5039 11L 11.25 11L 9.78516 8.62695L 8.32031 11L 7.06055 11L 9.19922 7.79492L 7.125 4.66016L 8.37891 4.66016L 9.76758 6.97461ZM 14.7715 11L 13.6875 11L 13.6875 4.66016L 14.7715 4.66016L 14.7715 11ZM 13.5996 2.97852C 13.5996 2.80273 13.6523 2.6543 13.7578 2.5332C 13.8672 2.41211 14.0273 2.35156 14.2383 2.35156C 14.4492 2.35156 14.6094 2.41211 14.7188 2.5332C 14.8281 2.6543 14.8828 2.80273 14.8828 2.97852C 14.8828 3.1543 14.8281 3.30078 14.7188 3.41797C 14.6094 3.53516 14.4492 3.59375 14.2383 3.59375C 14.0273 3.59375 13.8672 3.53516 13.7578 3.41797C 13.6523 3.30078 13.5996 3.1543 13.5996 2.97852ZM 17.9824 3.125L 17.9824 4.66016L 19.166 4.66016L 19.166 5.49805L 17.9824 5.49805L 17.9824 9.42969C 17.9824 9.68359 18.0352 9.875 18.1406 10.0039C 18.2461 10.1289 18.4258 10.1914 18.6797 10.1914C 18.8047 10.1914 18.9766 10.168 19.1953 10.1211L 19.1953 11C 18.9102 11.0781 18.6328 11.1172 18.3633 11.1172C 17.8789 11.1172 17.5137 10.9707 17.2676 10.6777C 17.0215 10.3848 16.8984 9.96875 16.8984 9.42969L 16.8984 5.49805L 15.7441 5.49805L 15.7441 4.66016L 16.8984 4.66016L 16.8984 3.125L 17.9824 3.125Z"/>
</defs>
</svg>
